# xmcd
#
# Track frame offsets:
#	150
#	10988
#	22762
#	35825
#	48631
#	61531
#	75301
#	87251
#	99913
#	107396
#	118703
#	129315
#	138573
#	149337
#	158614
#	169608
#	180410
#	190596
#	201295
#	213266
#
# Disc length: 2994 seconds
# Revision: 0
# Processed by: cddbd v1.5.2PL0 Copyright (c) Steve Scherf et al.
# Submitted via: dBpowerAMP V12.0
#
DISCID=f70bb014
DTITLE=Various Artist - The Essential Recordings (2 Of 2)
DYEAR=2017
DGENRE=Country
TTITLE0=Roy Rogers - My Chickasay Gal
TTITLE1=Roy Rogers and The Sons Of The Pioneers - Stampede
TTITLE2=Roy Rogers and Dale Evans - Happy Trails
TTITLE3=Roy Rogers - Don't Fence Me In
TTITLE4=Roy Rogers and The Sons Of The Pioneers - Blue Shadows On The Trail
TTITLE5=Roy Rogers and The Sons Of The Pioneers - (There'll Never Be Another) Pecos Bill
TTITLE6=Roy Rogers and The Sons Of The Pioneers - Home On The Range
TTITLE7=Roy Rogers - A Four-Legged Friend
TTITLE8=Roy Rogers - Cowboys Never Cry
TTITLE9=Roy Rogers - I Ride An Old Paint
TTITLE10=Roy Rogers - Whoopee Ti Yi Yo
TTITLE11=Roy Rogers - The Old Chisholm Trail
TTITLE12=Roy Rogers - Colorado Trail
TTITLE13=Roy Rogers - The Railroad Corral
TTITLE14=Roy Rogers - Cool Water
TTITLE15=Roy Rogers - The Streets Of Laredo (Cowboy's Lament)
TTITLE16=Roy Rogers - The Night Herding Song
TTITLE17=Roy Rogers - Doney Gal
TTITLE18=Roy Rogers - Good-Bye, Old Paint
TTITLE19=Roy Rogers - Bury Me Out On The Lone Prairie (The Dying Cowboy)
EXTD=
EXTT0=
EXTT1=
EXTT2=
EXTT3=
EXTT4=
EXTT5=
EXTT6=
EXTT7=
EXTT8=
EXTT9=
EXTT10=
EXTT11=
EXTT12=
EXTT13=
EXTT14=
EXTT15=
EXTT16=
EXTT17=
EXTT18=
EXTT19=
PLAYORDER=
